<svg width="16" height="16" viewBox="0 0 16 16" fill="none" xmlns="http://www.w3.org/2000/svg">
<path fill-rule="evenodd" clip-rule="evenodd" d="M14.6663 7.99998C14.6663 11.6819 11.6816 14.6666 7.99967 14.6666C4.31778 14.6666 1.33301 11.6819 1.33301 7.99998C1.33301 4.31808 4.31778 1.33331 7.99967 1.33331C11.6816 1.33331 14.6663 4.31808 14.6663 7.99998ZM8.86104 5.08561C8.86104 5.56869 8.46943 5.96031 7.98635 5.96031C7.50327 5.96031 7.11165 5.56869 7.11165 5.08561C7.11165 4.60253 7.50327 4.21092 7.98635 4.21092C8.46943 4.21092 8.86104 4.60253 8.86104 5.08561ZM6.48991 7.47638C6.48991 7.16955 6.73864 6.92082 7.04546 6.92082H8.24163C8.54845 6.92082 8.79718 7.16955 8.79718 7.47638V11.2981C8.79718 11.6049 8.54845 11.8537 8.24163 11.8537C7.9348 11.8537 7.68607 11.6049 7.68607 11.2981V8.03193H7.04546C6.73864 8.03193 6.48991 7.7832 6.48991 7.47638Z" fill="#BDBDBD"/>
</svg>
