<svg width="24" height="24" viewBox="0 0 24 24" fill="none" xmlns="http://www.w3.org/2000/svg">
<path fill-rule="evenodd" clip-rule="evenodd" d="M18.623 6.24583C18.8182 6.05056 18.8182 5.73398 18.623 5.53872C18.4277 5.34346 18.1111 5.34346 17.9158 5.53872L12.1625 11.292L6.40923 5.53872C6.21397 5.34346 5.89738 5.34346 5.70212 5.53872C5.50686 5.73398 5.50686 6.05056 5.70212 6.24583L11.4554 11.9991L5.70016 17.7544C5.5049 17.9497 5.5049 18.2663 5.70016 18.4615C5.89542 18.6568 6.212 18.6568 6.40726 18.4615L12.1625 12.7062L17.9178 18.4615C18.1131 18.6568 18.4297 18.6568 18.6249 18.4615C18.8202 18.2663 18.8202 17.9497 18.6249 17.7544L12.8696 11.9991L18.623 6.24583Z" fill="#2C2C2C"/>
</svg>
